<svg width="20" height="20" viewBox="0 0 20 20" fill="none" xmlns="http://www.w3.org/2000/svg">
<g clip-path="url(#clip0_46_1491)">
<rect x="2" y="2" width="16" height="16" rx="8" fill="white"/>
<path d="M10 18C14.4183 18 18 14.4183 18 10C18 5.58172 14.4183 2 10 2C5.58172 2 2 5.58172 2 10C2 14.4183 5.58172 18 10 18Z" fill="#AE1C28"/>
<path d="M17.5024 12.7826C17.824 11.916 18 10.9786 18 10C18 9.02147 17.824 8.08409 17.5024 7.21744H2.49759C2.17603 8.08409 2 9.02147 2 10C2 10.9786 2.17603 11.916 2.49759 12.7826L10 13.4783L17.5024 12.7826Z" fill="white"/>
<path d="M9.9985 18.0006C13.4382 18.0006 16.3706 15.8296 17.5009 12.7832H2.49609C3.62644 15.8296 6.55878 18.0006 9.9985 18.0006Z" fill="#21468B"/>
</g>
<rect x="2.25" y="2.25" width="15.5" height="15.5" rx="7.75" stroke="#292B37" stroke-opacity="0.1" stroke-width="0.5"/>
<defs>
<clipPath id="clip0_46_1491">
<rect x="2" y="2" width="16" height="16" rx="8" fill="white"/>
</clipPath>
</defs>
</svg>
